<?xml version="1.0" encoding="UTF-8"?>
<!-- Generator: Adobe Illustrator 16.0.0, SVG Export Plug-In . SVG Version: 6.00 Build 0)  -->
<!DOCTYPE svg PUBLIC "-//W3C//DTD SVG 1.1//EN" "http://www.w3.org/Graphics/SVG/1.1/DTD/svg11.dtd">
<svg version="1.1" id="Layer_1" xmlns="http://www.w3.org/2000/svg" xmlns:xlink="http://www.w3.org/1999/xlink" x="0px" y="0px" width="725.117px" height="169.171px" viewBox="17.711 6.516 725.117 169.171" enable-background="new 17.711 6.516 725.117 169.171" xml:space="preserve">
<g>
	<g opacity="0.24" enable-background="new    ">
		<path d="M37.728,170.967c0,1.953-0.976,3.092-3.905,3.092H20.803c-1.627,0-3.092-1.465-3.092-3.092V63.237    c0-1.79,1.464-3.092,3.092-3.092h6.347c1.139,0,2.278,0.65,2.767,1.952l2.116,5.371c2.441-3.255,10.415-8.951,20.993-8.951    c17.901,0,31.408,15.46,31.408,34.175c0,19.202-14.646,34.174-32.222,34.174c-6.346,0-12.205-2.278-14.483-3.58V170.967z     M49.607,109.291c9.113,0,15.785-7.485,15.785-16.599s-6.184-16.599-15.134-16.599c-8.299,0-12.368,6.509-13.344,9.927v19.527    C36.914,105.547,41.471,109.291,49.607,109.291z"/>
		<path d="M99.082,14.417c0-1.628,1.464-3.092,3.092-3.092h13.67c1.627,0,3.092,1.464,3.092,3.092v107.73    c0,1.627-1.464,3.092-3.092,3.092h-13.67c-1.627,0-3.092-1.465-3.092-3.092V14.417z"/>
		<path d="M159.782,84.067c6.509,0,11.879,1.79,11.879,1.79c0.163-8.3-2.441-11.229-8.462-11.229c-6.021,0-14.483,1.302-18.227,2.44    c-2.278,0.651-3.417-0.813-3.743-2.929l-1.465-8.462c-0.488-2.441,0.814-3.581,2.278-4.068c1.302-0.488,11.717-3.093,22.132-3.093    c20.342,0,25.062,10.578,25.062,28.316v35.313c0,1.627-1.465,3.092-3.092,3.092h-5.858c-1.139,0-1.953-0.488-2.767-2.278    l-1.953-4.394c-3.743,3.417-9.764,8.299-19.854,8.299c-13.019,0-21.969-8.462-21.969-22.294    C133.744,93.017,143.183,84.067,159.782,84.067z M160.107,113.034c5.208,0,10.252-4.394,11.229-6.347v-8.95    c0,0-4.394-1.953-9.113-1.953c-6.347,0-10.578,3.58-10.578,8.788C151.645,109.454,155.062,113.034,160.107,113.034z"/>
		<path d="M199.489,64.375c-0.976-2.115,0.326-4.23,2.767-4.23h14.646c1.465,0,2.278,0.813,2.767,1.79l16.437,36.778h0.163    l16.273-36.778c0.813-1.628,1.953-1.79,3.906-1.79h13.019c2.604,0,3.906,2.115,2.767,4.23l-49.797,107.73    c-0.488,0.977-1.465,1.953-2.767,1.953h-13.995c-2.441,0-3.906-2.115-2.767-4.394l23.108-48.983L199.489,64.375z"/>
		<path d="M287.043,102.13c0,0-4.882-5.533-4.882-15.297c0-15.135,12.205-28.316,28.316-28.316h29.617    c1.79,0,3.093,1.302,3.093,3.093v5.37c0,1.139-0.651,2.44-1.79,2.767l-9.113,2.929c0,0,6.509,5.045,6.509,16.599    c0,12.856-10.74,25.55-27.827,25.55c-6.184,0-10.415-1.302-13.019-1.302c-2.278,0-6.021,2.278-6.021,6.184    c0,3.418,2.929,5.533,6.509,5.533h20.83c14.81,0,26.852,8.462,26.852,22.783c0,14.972-12.042,27.665-35.639,27.665    c-24.085,0-33.198-11.88-33.198-22.295c0-9.765,8.137-14.483,9.764-15.46v-0.488c-2.767-0.813-12.205-5.207-12.205-17.087    C274.838,107.664,287.043,102.13,287.043,102.13z M310.314,159.414c9.113,0,15.135-4.068,15.135-10.253    c0-2.929-2.278-7.974-11.88-7.974c-3.58,0-7.16,0.162-10.578,0.65c-1.953,0.651-6.998,2.93-6.998,7.975    C295.994,155.507,301.527,159.414,310.314,159.414z M310.966,99.364c6.672,0,11.229-4.882,11.229-11.717    s-4.557-11.717-11.229-11.717c-6.51,0-11.392,4.882-11.392,11.717S304.456,99.364,310.966,99.364z"/>
		<path d="M356.857,63.237c0-1.79,1.465-3.092,3.093-3.092h6.184c1.465,0,2.441,0.813,2.929,2.115l2.278,6.347    c2.278-3.255,8.3-10.09,18.39-10.09c7.648,0,14.483,2.441,12.53,6.51l-6.021,10.578c-0.813,1.464-2.44,2.115-3.742,1.464    c-0.488-0.162-2.93-0.976-4.72-0.976c-6.509,0-10.415,4.394-11.554,6.672v39.382c0,2.278-1.465,3.092-3.743,3.092h-12.53    c-1.628,0-3.093-1.465-3.093-3.092V63.237z"/>
		<path d="M440.18,58.517c18.389,0,33.36,15.623,33.36,34.012c0,18.715-14.972,34.337-33.36,34.337s-33.36-15.622-33.36-34.337    C406.819,74.14,421.791,58.517,440.18,58.517z M440.18,109.291c8.625,0,15.622-7.485,15.622-16.762    c0-9.113-6.997-16.436-15.622-16.436c-8.788,0-15.623,7.322-15.623,16.436C424.557,101.805,431.392,109.291,440.18,109.291z"/>
		<path d="M595.918,63.237c0-1.79,1.465-3.092,3.093-3.092h6.184c1.465,0,2.278,0.813,2.767,1.952l2.278,6.021    c2.44-2.604,10.415-9.602,22.945-9.602c20.667,0,28.967,15.46,28.967,32.385v31.245c0,1.627-1.465,3.092-3.092,3.092h-13.345    c-1.79,0-3.092-1.465-3.092-3.092V89.925c0-8.462-4.394-13.832-12.205-13.832c-8.462,0-13.67,5.858-15.297,10.252v35.802    c0,2.278-0.977,3.092-4.068,3.092h-12.042c-1.628,0-3.093-1.465-3.093-3.092V63.237z"/>
		<path d="M707.72,58.517c6.51,0,11.555,1.79,14.483,2.93v-47.03c0-1.628,1.465-3.092,3.092-3.092h13.833    c1.627,0,3.092,1.464,3.092,3.092v107.73c0,1.627-1.465,3.092-3.092,3.092h-6.347c-1.465,0-2.604-1.302-3.092-3.092l-1.628-5.045    c0,0-7.648,9.764-21.318,9.764c-17.738,0-31.245-15.459-31.245-34.174C675.498,73.652,688.354,58.517,707.72,58.517z     M709.185,109.291c8.625,0,12.53-6.672,13.67-10.577V79.835c0,0-4.557-3.742-12.693-3.742c-9.113,0-15.785,7.485-15.785,16.599    S700.56,109.291,709.185,109.291z"/>
	</g>
	<g enable-background="new    ">
		<path fill="#FFFFFF" d="M38.336,166.159c0,1.953-0.976,3.092-3.905,3.092H21.412c-1.627,0-3.092-1.465-3.092-3.092V58.428    c0-1.79,1.464-3.092,3.092-3.092h6.347c1.139,0,2.278,0.65,2.767,1.952l2.116,5.371c2.441-3.255,10.415-8.951,20.993-8.951    c17.901,0,31.408,15.46,31.408,34.175c0,19.202-14.646,34.174-32.222,34.174c-6.346,0-12.205-2.278-14.483-3.58V166.159z     M50.216,104.482c9.113,0,15.785-7.485,15.785-16.599s-6.184-16.599-15.134-16.599c-8.299,0-12.368,6.509-13.344,9.927v19.527    C37.522,100.739,42.079,104.482,50.216,104.482z"/>
		<path fill="#FFFFFF" d="M99.69,9.608c0-1.628,1.464-3.092,3.092-3.092h13.67c1.627,0,3.092,1.464,3.092,3.092v107.73    c0,1.627-1.464,3.092-3.092,3.092h-13.67c-1.627,0-3.092-1.465-3.092-3.092V9.608z"/>
		<path fill="#FFFFFF" d="M160.39,79.258c6.509,0,11.879,1.79,11.879,1.79c0.163-8.3-2.441-11.229-8.462-11.229    c-6.021,0-14.483,1.302-18.227,2.44c-2.278,0.651-3.417-0.813-3.743-2.929l-1.465-8.462c-0.488-2.441,0.814-3.581,2.278-4.068    c1.302-0.488,11.717-3.093,22.132-3.093c20.342,0,25.062,10.578,25.062,28.316v35.313c0,1.627-1.465,3.092-3.092,3.092h-5.858    c-1.139,0-1.953-0.488-2.767-2.278l-1.953-4.394c-3.743,3.417-9.764,8.299-19.854,8.299c-13.019,0-21.969-8.462-21.969-22.294    C134.353,88.208,143.791,79.258,160.39,79.258z M160.715,108.225c5.208,0,10.252-4.394,11.229-6.347v-8.95    c0,0-4.394-1.953-9.113-1.953c-6.347,0-10.578,3.58-10.578,8.788C152.253,104.645,155.671,108.225,160.715,108.225z"/>
		<path fill="#FFFFFF" d="M200.098,59.567c-0.976-2.115,0.326-4.23,2.767-4.23h14.646c1.465,0,2.278,0.813,2.767,1.79l16.437,36.778    h0.163l16.273-36.778c0.813-1.628,1.953-1.79,3.906-1.79h13.019c2.604,0,3.906,2.115,2.767,4.23l-49.797,107.73    c-0.488,0.977-1.465,1.953-2.767,1.953h-13.995c-2.441,0-3.906-2.115-2.767-4.394l23.108-48.983L200.098,59.567z"/>
		<path fill="#FFFFFF" d="M287.652,97.322c0,0-4.882-5.533-4.882-15.297c0-15.135,12.205-28.316,28.316-28.316h29.617    c1.79,0,3.093,1.302,3.093,3.093v5.37c0,1.139-0.651,2.44-1.79,2.767l-9.113,2.929c0,0,6.509,5.045,6.509,16.599    c0,12.856-10.74,25.55-27.827,25.55c-6.184,0-10.415-1.302-13.019-1.302c-2.278,0-6.021,2.278-6.021,6.184    c0,3.418,2.929,5.533,6.509,5.533h20.83c14.81,0,26.852,8.462,26.852,22.783c0,14.972-12.042,27.665-35.639,27.665    c-24.085,0-33.198-11.88-33.198-22.295c0-9.765,8.137-14.483,9.764-15.46v-0.488c-2.767-0.813-12.205-5.207-12.205-17.087    C275.447,102.855,287.652,97.322,287.652,97.322z M310.923,154.605c9.113,0,15.135-4.068,15.135-10.253    c0-2.929-2.278-7.974-11.88-7.974c-3.58,0-7.16,0.162-10.578,0.65c-1.953,0.651-6.998,2.93-6.998,7.975    C296.603,150.699,302.135,154.605,310.923,154.605z M311.574,94.555c6.672,0,11.229-4.882,11.229-11.717    s-4.557-11.717-11.229-11.717c-6.51,0-11.392,4.882-11.392,11.717S305.064,94.555,311.574,94.555z"/>
		<path fill="#FFFFFF" d="M357.466,58.428c0-1.79,1.465-3.092,3.093-3.092h6.184c1.465,0,2.441,0.813,2.929,2.115l2.278,6.347    c2.278-3.255,8.3-10.09,18.39-10.09c7.648,0,14.483,2.441,12.53,6.51l-6.021,10.578c-0.813,1.464-2.44,2.115-3.742,1.464    c-0.488-0.162-2.93-0.976-4.72-0.976c-6.509,0-10.415,4.394-11.554,6.672v39.382c0,2.278-1.465,3.092-3.743,3.092h-12.53    c-1.628,0-3.093-1.465-3.093-3.092V58.428z"/>
		<path fill="#FFFFFF" d="M440.788,53.708c18.389,0,33.36,15.623,33.36,34.012c0,18.715-14.972,34.337-33.36,34.337    s-33.36-15.622-33.36-34.337C407.428,69.332,422.399,53.708,440.788,53.708z M440.788,104.482c8.625,0,15.622-7.485,15.622-16.762    c0-9.113-6.997-16.436-15.622-16.436c-8.788,0-15.623,7.322-15.623,16.436C425.165,96.997,432,104.482,440.788,104.482z"/>
		<path fill="#FFFFFF" d="M596.526,58.428c0-1.79,1.465-3.092,3.093-3.092h6.184c1.465,0,2.278,0.813,2.767,1.952l2.278,6.021    c2.44-2.604,10.415-9.602,22.945-9.602c20.667,0,28.967,15.46,28.967,32.385v31.245c0,1.627-1.465,3.092-3.092,3.092h-13.345    c-1.79,0-3.092-1.465-3.092-3.092V85.117c0-8.462-4.394-13.832-12.205-13.832c-8.462,0-13.67,5.858-15.297,10.252v35.802    c0,2.278-0.977,3.092-4.068,3.092h-12.042c-1.628,0-3.093-1.465-3.093-3.092V58.428z"/>
		<path fill="#FFFFFF" d="M708.328,53.708c6.51,0,11.555,1.79,14.483,2.93V9.608c0-1.628,1.465-3.092,3.092-3.092h13.833    c1.627,0,3.092,1.464,3.092,3.092v107.73c0,1.627-1.465,3.092-3.092,3.092h-6.347c-1.465,0-2.604-1.302-3.092-3.092l-1.628-5.045    c0,0-7.648,9.764-21.318,9.764c-17.738,0-31.245-15.459-31.245-34.174C676.106,68.843,688.963,53.708,708.328,53.708z     M709.793,104.482c8.625,0,12.53-6.672,13.67-10.577V75.027c0,0-4.557-3.742-12.693-3.742c-9.113,0-15.785,7.485-15.785,16.599    S701.168,104.482,709.793,104.482z"/>
	</g>
	<g opacity="0.24">
		<g>
			<path d="M576.223,69.015c-0.162,0-1.28,0.004-2.178,0.053v-2.135c0-2.585-1.541-4.533-3.859-4.533     c-0.265,0-0.428,0.025-0.693,0.078c-0.188,0.038-18.368,3.756-32.646,15.174c-2.764-2.209-5.854-4.131-8.546-5.792v-2.254     c0-3.98-0.482-8.043-6.583-10.17l-7.791-2.722c-0.811-0.292-1.604-0.441-2.374-0.441c-3.659,0-5.841,3.311-5.841,6.511     c0,0.011,0.002,0.021,0.002,0.031c-0.912-0.222-1.438-0.332-1.467-0.336c-0.266-0.051-0.873-0.078-1.137-0.078     c-2.316-0.001-4.408,1.947-4.408,4.532v2.135c-0.896-0.049-2.016-0.054-2.174-0.054c-2.757,0-5.002,2.243-5.002,4.999v39.35     c0,2.436,2.691,4.467,4.485,4.908v4.297c0,2.756,2.504,5.166,5.261,5.166h28.229c0.795,0.896,2.527,2.689,4.535,2.689h5.774     c2.007,0,3.735-1.793,4.531-2.689h29.312c2.761,0,4.874-2.41,4.874-5.164v-4.637c1.794-0.779,2.691-2.531,2.691-4.57V74.014     C581.221,71.257,578.979,69.015,576.223,69.015z M573.652,124.145h-27.756c11.827-4.485,23.663-5.601,28.147-5.748v4.171     C574.045,123.195,574.283,124.145,573.652,124.145z M499.599,122.569v-4.131c6.278,0.235,17.333,1.222,28.354,5.706h-26.68     C500.646,124.145,499.599,123.195,499.599,122.569z M496.012,74.014c0-0.628,0.199-1.139,0.828-1.139     c0.041,0,0.965,0.002,1.861,0.066v33.344c0,2.611,2.147,5.012,4.453,5.471c1.188,0.236,8.477,1.744,16.869,5.613     c-11.41-2.744-21.34-2.865-22.928-2.865c-0.629,0-1.085-0.512-1.085-1.141L496.012,74.014L496.012,74.014z M503.238,66.264     c0.072,0.014,2.639,0.528,6.227,1.745V93.08c0,0.621,0.552,1.194,1.084,1.51c0.537,0.316,1.312,0.326,1.853,0.027l6.17-3.373     l6.655,7.916c0.34,0.403,0.851,0.629,1.358,0.629c0.198,0,0.384-0.035,0.579-0.107c0.695-0.252,1.136-0.912,1.136-1.648V76.342     c1.796,1.396,4.485,2.961,7.177,4.712v0.263v40.306c-13.453-9.979-29.162-13.287-31.019-13.654     c-0.401-0.08-1.272-0.822-1.272-1.686v-39.35C503.186,66.502,503.146,66.288,503.238,66.264z M511.556,59.783     c0.362,0,0.769,0.077,1.212,0.238l7.757,2.729c3.666,1.278,4.188,3.065,4.188,6.855v23.6l-4.389-5.323     c-0.341-0.407-0.809-0.627-1.312-0.627c-0.285,0-0.744,0.072-1.011,0.219l-4.948,2.634V67.013c0-1.524,0.186-5.091-3.524-5.091     c-0.134,0-0.178,0.017-0.307,0.045C509.45,60.917,510.225,59.783,511.556,59.783z M570.455,106.283     c0,0.895-0.422,1.604-0.824,1.686c-1.854,0.367-17.111,3.678-30.565,13.654V81.317v-0.263     c13.455-11.137,31.141-14.755,31.36-14.797c0.061,0.031,0.029,0.245,0.029,0.676V106.283L570.455,106.283z M576.562,114.503     c-1.59,0-11.533,0.119-22.945,2.863c8.392-3.869,15.315-5.377,16.508-5.611c2.303-0.459,3.92-2.859,3.92-5.473V72.94     c0.896-0.062,2.271-0.066,2.312-0.066c0.626,0,1.276,0.511,1.276,1.139v39.352C577.635,113.992,577.191,114.503,576.562,114.503z     "/>
		</g>
	</g>
	<g>
		<g>
			<path fill="#FFFFFF" d="M576.223,65.245c-0.162,0-1.28,0.004-2.178,0.054v-2.135c0-2.585-1.541-4.533-3.859-4.533     c-0.265,0-0.428,0.025-0.693,0.078c-0.188,0.038-18.368,3.756-32.646,15.174c-2.764-2.209-5.854-4.13-8.546-5.792v-2.254     c0-3.98-0.482-8.043-6.583-10.17l-7.791-2.722c-0.811-0.292-1.604-0.44-2.374-0.44c-3.659,0-5.841,3.31-5.841,6.51     c0,0.011,0.002,0.021,0.002,0.031c-0.912-0.223-1.438-0.332-1.467-0.337c-0.266-0.051-0.873-0.078-1.137-0.078     c-2.316-0.001-4.408,1.946-4.408,4.531v2.135c-0.896-0.05-2.016-0.055-2.174-0.055c-2.757,0-5.002,2.243-5.002,4.999v39.348     c0,2.438,2.691,4.47,4.485,4.91v4.297c0,2.756,2.504,5.166,5.261,5.166h28.229c0.795,0.896,2.527,2.69,4.535,2.69h5.774     c2.007,0,3.735-1.795,4.531-2.69h29.312c2.761,0,4.874-2.41,4.874-5.164v-4.637c1.794-0.779,2.691-2.531,2.691-4.572V70.245     C581.221,67.487,578.979,65.245,576.223,65.245z M573.652,120.376h-27.756c11.827-4.484,23.663-5.602,28.147-5.75v4.172     C574.045,119.425,574.283,120.376,573.652,120.376z M499.599,118.8v-4.131c6.278,0.236,17.333,1.223,28.354,5.707h-26.68     C500.646,120.376,499.599,119.425,499.599,118.8z M496.012,70.245c0-0.628,0.199-1.14,0.828-1.14     c0.041,0,0.965,0.002,1.861,0.066v33.344c0,2.611,2.147,5.012,4.453,5.471c1.188,0.235,8.477,1.744,16.869,5.613     c-11.41-2.744-21.34-2.865-22.928-2.865c-0.629,0-1.085-0.512-1.085-1.143L496.012,70.245L496.012,70.245z M503.238,62.495     c0.072,0.013,2.639,0.527,6.227,1.744v25.07c0,0.621,0.552,1.195,1.084,1.51c0.537,0.315,1.312,0.327,1.853,0.027l6.17-3.373     l6.655,7.916c0.34,0.405,0.851,0.629,1.358,0.629c0.198,0,0.384-0.035,0.579-0.106c0.695-0.252,1.136-0.912,1.136-1.65V72.572     c1.796,1.396,4.485,2.961,7.177,4.712v0.263v40.305c-13.453-9.978-29.162-13.287-31.019-13.653     c-0.401-0.08-1.272-0.822-1.272-1.687V63.164C503.186,62.732,503.146,62.519,503.238,62.495z M511.556,56.014     c0.362,0,0.769,0.077,1.212,0.238l7.757,2.729c3.666,1.277,4.188,3.065,4.188,6.855v23.598l-4.389-5.321     c-0.341-0.408-0.809-0.628-1.312-0.628c-0.285,0-0.744,0.072-1.011,0.219l-4.948,2.634V63.243c0-1.524,0.186-5.092-3.524-5.092     c-0.134,0-0.178,0.018-0.307,0.046C509.45,57.147,510.225,56.014,511.556,56.014z M570.455,102.513     c0,0.895-0.422,1.605-0.824,1.686c-1.854,0.367-17.111,3.68-30.565,13.654V77.548v-0.263     c13.455-11.137,31.141-14.754,31.36-14.796c0.061,0.03,0.029,0.244,0.029,0.675V102.513L570.455,102.513z M576.562,110.733     c-1.59,0-11.533,0.12-22.945,2.863c8.392-3.868,15.315-5.378,16.508-5.611c2.303-0.459,3.92-2.858,3.92-5.473V69.171     c0.896-0.062,2.271-0.066,2.312-0.066c0.626,0,1.276,0.511,1.276,1.14v39.35C577.635,110.222,577.191,110.733,576.562,110.733z"/>
		</g>
	</g>
</g>
</svg>